<svg id="Capa_1" data-name="Capa 1" xmlns="http://www.w3.org/2000/svg" xmlns:xlink="http://www.w3.org/1999/xlink" viewBox="0 0 77.36 101.2"><defs><style>.cls-1{fill:none;clip-rule:evenodd;}.cls-2{fill:#cbdcf3;}.cls-10,.cls-11,.cls-12,.cls-13,.cls-14,.cls-15,.cls-16,.cls-17,.cls-18,.cls-19,.cls-2,.cls-20,.cls-21,.cls-22,.cls-23,.cls-24,.cls-25,.cls-26,.cls-28,.cls-3,.cls-30,.cls-31,.cls-32,.cls-33,.cls-34,.cls-35,.cls-36,.cls-37,.cls-38,.cls-39,.cls-4,.cls-40,.cls-42,.cls-43,.cls-44,.cls-45,.cls-46,.cls-47,.cls-48,.cls-49,.cls-5,.cls-50,.cls-51,.cls-52,.cls-53,.cls-54,.cls-55,.cls-56,.cls-57,.cls-58,.cls-59,.cls-6,.cls-60,.cls-61,.cls-62,.cls-63,.cls-64,.cls-65,.cls-66,.cls-67,.cls-68,.cls-69,.cls-7,.cls-70,.cls-71,.cls-72,.cls-73,.cls-74,.cls-75,.cls-77,.cls-78,.cls-79,.cls-8{fill-rule:evenodd;}.cls-3{fill:#d9d9d9;}.cls-4{fill:#9a9999;}.cls-5{fill:#ebebeb;}.cls-6{fill:#cfcdcd;}.cls-7{fill:#1a1a1a;}.cls-8{fill:#3fc0f0;}.cls-37,.cls-38,.cls-9{opacity:0.5;}.cls-10{fill:#9eadcd;}.cls-11,.cls-29,.cls-37{fill:#fff;}.cls-12{fill:#4d4d4d;}.cls-13{fill:#cdcccc;}.cls-14{fill:#7f8080;}.cls-15{fill:#b31917;}.cls-16{fill:#e52521;}.cls-17{fill:#eea170;}.cls-18{fill:#1c5497;}.cls-19{fill:#e5e5e4;}.cls-20{fill:#f9c29a;}.cls-21{fill:#f8f7f7;}.cls-22{fill:#878ea1;}.cls-23{fill:#2c374a;}.cls-24{fill:#3873b9;}.cls-25{fill:#cc1417;}.cls-26{fill:#c7c6c6;}.cls-27{fill:#1e1e1c;}.cls-28{fill:#343434;}.cls-30{fill:#3d3d3b;}.cls-31{fill:#585857;}.cls-32{fill:#f9c31b;}.cls-33{fill:#f0a50c;}.cls-34{fill:#db8f0a;}.cls-35{fill:#878787;}.cls-36{fill:#b3b2b2;}.cls-38{fill:#8d9ace;}.cls-39{fill:url(#GradientFill_2);}.cls-40{fill:#0cacd6;}.cls-41{clip-path:url(#clip-path);}.cls-42{fill:#9e9d9c;}.cls-43{fill:#8e8e8e;}.cls-44{fill:#989898;}.cls-45{fill:#9f9e9f;}.cls-46{fill:#a4a3a5;}.cls-47{fill:#aaaaab;}.cls-48{fill:#b0b0b0;}.cls-49{fill:#b6b6b7;}.cls-50{fill:#bbb;}.cls-51{fill:#bebdbf;}.cls-52{fill:#c5c4c5;}.cls-53{fill:#c9c7c7;}.cls-54{fill:#cbcacb;}.cls-55{fill:#cfcccc;}.cls-56{fill:#d5d3d4;}.cls-57{fill:#a2a1a1;}.cls-58{fill:#dddadb;}.cls-59{fill:#a8a8a7;}.cls-60{fill:#e3e1e2;}.cls-61{fill:#aeaeaf;}.cls-62{fill:#edebec;}.cls-63{fill:#b8b6b7;}.cls-64{fill:#f5f4f4;}.cls-65{fill:#bdbcbc;}.cls-66{fill:#fcfbfb;}.cls-67{fill:#c3c2c2;}.cls-68{fill:#fcfcfc;}.cls-69{fill:#cbcaca;}.cls-70{fill:#f6f6f6;}.cls-71{fill:#d0d0d0;}.cls-72{fill:#f0f0f0;}.cls-73{fill:#d6d7d7;}.cls-74{fill:#dedede;}.cls-75{fill:#e3e3e2;}.cls-76{clip-path:url(#clip-path-2);}.cls-77{fill:#81889c;}.cls-78{fill:#bbb7b5;}.cls-79{fill:#ecb602;}</style><linearGradient id="GradientFill_2" x1="59.4" y1="86.18" x2="50.46" y2="70.69" gradientUnits="userSpaceOnUse"><stop offset="0" stop-color="#727070"/><stop offset="0.21" stop-color="#c7c6c6"/><stop offset="0.39" stop-color="#fff"/><stop offset="0.69" stop-color="#9e9d9c"/><stop offset="1" stop-color="#727070"/></linearGradient><clipPath id="clip-path" transform="translate(-0.51 -3.27)"><path class="cls-1" d="M47.5,60.12a2.9,2.9,0,0,1,1.37,2.31c0,.85-.61,1.19-1.37.77a2.92,2.92,0,0,1-1.36-2.3C46.14,60.05,46.75,59.7,47.5,60.12Z"/></clipPath><clipPath id="clip-path-2" transform="translate(-0.51 -3.27)"><path class="cls-1" d="M51.29,62.27a2.9,2.9,0,0,1,1.37,2.3c0,.85-.61,1.2-1.37.78A2.93,2.93,0,0,1,49.93,63C49.93,62.19,50.54,61.85,51.29,62.27Z"/></clipPath></defs><title>img</title><polygon class="cls-2" points="17.38 77.24 21.41 79.72 31.68 73.28 27.68 70.8 17.38 77.24"/><polygon class="cls-2" points="12.27 60.35 32.28 72.92 45.81 64.47 25.79 52.1 12.27 60.35"/><polygon class="cls-2" points="17.88 61.95 40.85 76.37 56.4 66.66 33.42 52.46 17.88 61.95"/><path class="cls-2" d="M11.53,65c-6.09,0-11,2.87-11,6.41s4.93,6.4,11,6.4,11-2.87,11-6.4S17.61,65,11.53,65Z" transform="translate(-0.51 -3.27)"/><polygon class="cls-3" points="24.33 7.13 41.6 17.98 41.6 73.68 24.14 62.61 24.33 7.13"/><polygon class="cls-4" points="53.28 10.68 41.59 17.98 41.59 73.69 53.28 66.25 53.28 10.68"/><polygon class="cls-5" points="24.32 7.13 41.59 17.98 53.28 10.68 36.01 0 24.32 7.13"/><polygon class="cls-4" points="25.26 11.72 25.26 42.77 40.02 52.05 40.02 21 25.26 11.72"/><polygon class="cls-5" points="25.27 42.77 40.02 52.04 40.02 37.53 36.95 35.64 25.27 42.77"/><polygon class="cls-6" points="36.94 19.07 36.94 35.64 40.02 37.53 40.02 21 36.94 19.07"/><polygon class="cls-7" points="30.5 11.76 30.5 14.3 35.69 17.58 35.69 15.03 30.5 11.76"/><polygon class="cls-8" points="30.66 12.1 30.66 14.1 34.73 16.66 34.73 14.67 30.66 12.1"/><g class="cls-9"><polygon class="cls-10" points="29.08 35.15 40.02 41.86 40.02 32.77 36.4 30.48 29.08 35.15"/><polygon class="cls-11" points="29.08 35.82 36.94 30.82 36.94 30.15 29.08 35.15 29.08 35.82"/><polygon class="cls-11" points="29.08 35.82 40.02 42.54 40.02 41.86 29.08 35.15 29.08 35.82"/><polygon class="cls-11" points="36.94 30.82 40.02 32.71 40.02 32.04 36.94 30.15 36.94 30.82"/></g><polygon class="cls-12" points="24.19 44.28 27.45 46.31 27.45 46.97 37.63 53.41 37.2 53.69 38.18 53.06 41.43 55.11 41.48 73.72 40.44 74.38 23.61 63.22 23.23 44.89 24.19 44.28"/><polygon class="cls-13" points="41.43 55.11 41.48 73.72 40.44 74.38 38.28 72.95 40.44 55.73 41.43 55.11"/><polygon class="cls-5" points="23.23 44.89 23.22 63.48 40.44 74.38 40.44 55.73 37.2 53.69 37.2 54.39 26.47 47.62 26.47 46.94 23.23 44.89"/><polygon class="cls-14" points="24.54 12.92 24.54 17.46 25.03 17.77 25.03 13.23 24.54 12.92"/><g class="cls-9"><polygon class="cls-10" points="29.08 29.87 40.02 36.59 40.02 27.49 36.4 25.2 29.08 29.87"/><polygon class="cls-11" points="29.08 30.54 36.94 25.55 36.94 24.87 29.08 29.87 29.08 30.54"/><polygon class="cls-11" points="29.08 30.54 40.02 37.26 40.02 36.59 29.08 29.87 29.08 30.54"/><polygon class="cls-11" points="36.94 25.55 40.02 27.43 40.02 26.76 36.94 24.87 36.94 25.55"/></g><g class="cls-9"><polygon class="cls-10" points="25.65 21.21 40.02 30.03 40.02 21 32.97 16.54 25.65 21.21"/><polygon class="cls-11" points="25.65 21.88 33.51 16.89 32.95 16.55 25.65 21.21 25.65 21.88"/><polygon class="cls-11" points="25.65 21.88 40.02 30.7 40.02 30.03 25.65 21.21 25.65 21.88"/></g><path class="cls-15" d="M6.08,26.65c-3,5.1,8.19,4.72,10,4.48,1.27-.29,1.25-2.51-.27-3C12.66,27.3,7.24,24.68,6.08,26.65Z" transform="translate(-0.51 -3.27)"/><path class="cls-16" d="M15.91,31.1c1.27.35,5.46-2.7,6.67-4,.2-.77-.22-1.76-.79-1.43s-4.27,1.63-6,2.52A2,2,0,0,0,15.91,31.1Z" transform="translate(-0.51 -3.27)"/><path class="cls-17" d="M21.91,25.86c.29-.66,0-.71.24-1.08s1.46-.26,2-.39c.13.18-.84.21.2.53-1.18.73-.15.29.09.57,0,.19-1,.51-.17.71-.44.12-.31.32-.94.54a7.32,7.32,0,0,1-.94.21C22,27,21.64,26.45,21.91,25.86Z" transform="translate(-0.51 -3.27)"/><path class="cls-18" d="M24,23.37H24a.17.17,0,0,1,.1.2L23.33,27c-.08.36-.63.18-.52-.17l1-3.33A.14.14,0,0,1,24,23.37Z" transform="translate(-0.51 -3.27)"/><path class="cls-4" d="M25.19,18.54l.2.06-1.3,4.88c0,.1-.23,0-.2-.06Z" transform="translate(-0.51 -3.27)"/><path class="cls-19" d="M25.19,18.54l.2.06-.18.55c0,.07-.15,0-.14,0Z" transform="translate(-0.51 -3.27)"/><path class="cls-20" d="M22,24.92a1.06,1.06,0,0,1,.62-.9c.35-.2.47-.31.6-.29s.38,0,.76.11c-.13.53-.55.41-.73.4a1,1,0,0,1-.36.35C22.65,26,22,25.33,22,24.92Z" transform="translate(-0.51 -3.27)"/><path class="cls-20" d="M24.15,26l-.6.16c-.26.07-.19.38.08.36l.61-.09C24.52,26.43,24.38,26,24.15,26Z" transform="translate(-0.51 -3.27)"/><path class="cls-20" d="M24.53,25.63h0a.24.24,0,0,0-.27-.22l-.8.2c-.31.07-.25.44.07.41l.8-.09A.25.25,0,0,0,24.53,25.63Z" transform="translate(-0.51 -3.27)"/><path class="cls-20" d="M24.57,25.08h0a.25.25,0,0,0-.3-.21l-.9.29c-.33.11-.27.52.07.44l.91-.21A.28.28,0,0,0,24.57,25.08Z" transform="translate(-0.51 -3.27)"/><path class="cls-20" d="M24.69,24.48h0a.23.23,0,0,0-.29-.18l-.77.29c-.3.11-.21.47.1.4l.8-.18A.25.25,0,0,0,24.69,24.48Z" transform="translate(-0.51 -3.27)"/><path class="cls-21" d="M16.19,26.16c6.17,3.83,12,7.5,17.24,10.83l0,36.61-1,.66L15.61,63.1l-.38-36.33Z" transform="translate(-0.51 -3.27)"/><polygon class="cls-13" points="32.92 33.71 32.97 70.33 31.93 70.99 29.77 69.56 31.93 34.34 32.92 33.71"/><path class="cls-5" d="M15.23,26.77V63.36l17.22,10.9V37.61Z" transform="translate(-0.51 -3.27)"/><path class="cls-7" d="M22.65,36v8L25,45.44v-8Z" transform="translate(-0.51 -3.27)"/><path class="cls-8" d="M23,36.81v5.37l1.59,1V37.81Z" transform="translate(-0.51 -3.27)"/><path class="cls-22" d="M11.45,68.73c.64.5.25,2-.43,2.25-1.54.57-2.7,1.28-3.72,1.65a1.26,1.26,0,0,1-1.58-.49c-.09-.28.47-1.32.47-1.32C8,71,10.65,68.25,11.45,68.73Z" transform="translate(-0.51 -3.27)"/><path class="cls-23" d="M9.34,68.85c.79.23,1.47-.39,1.74-.34a.79.79,0,0,1,.57.64,1.47,1.47,0,0,1-.7,1.49c-.53.29-1.14.15-2,.55a10.41,10.41,0,0,1-2.17,1,.86.86,0,0,1-.89-.69A2.67,2.67,0,0,1,9.34,68.85Z" transform="translate(-0.51 -3.27)"/><path class="cls-18" d="M10.82,59.36a22.11,22.11,0,0,0,.74-2.64c1.61-6.82,1.95-9,1.44-13.2-1.29-.47-4.36,1-5.53-.29-2.39,2.62.64,12.12-.08,15.42C7.91,59.61,9.67,60.47,10.82,59.36Z" transform="translate(-0.51 -3.27)"/><path class="cls-18" d="M6,70.72c1.1,1.14,2.25.76,2.92-.84,0-2.56,1.23-7.47,2-10.77.47-2-2.51-3.09-3.54-.46C6.09,61.57,6.07,69.54,6,70.72Z" transform="translate(-0.51 -3.27)"/><path class="cls-22" d="M17.92,71.36c.64.5.25,2-.43,2.25-1.54.57-2.7,1.28-3.72,1.65a1.26,1.26,0,0,1-1.58-.49c-.09-.28.47-1.32.47-1.32C14.48,73.66,17.12,70.88,17.92,71.36Z" transform="translate(-0.51 -3.27)"/><path class="cls-23" d="M15.81,71.48c.8.21,1.47-.39,1.74-.34a.78.78,0,0,1,.57.64,1.47,1.47,0,0,1-.7,1.49c-.53.29-1.14.15-2,.55a10.41,10.41,0,0,1-2.17,1,.87.87,0,0,1-.89-.69A2.59,2.59,0,0,1,15.81,71.48Z" transform="translate(-0.51 -3.27)"/><path class="cls-24" d="M15.7,61.06a14.83,14.83,0,0,0,.28-2c.78-6.92.58-10.69-.44-14.8-1.35-.32-5.2,1-6.51-.17-2.73,3.78,3.56,11.85,2.9,16.69C12.57,61.67,14.68,62.29,15.7,61.06Z" transform="translate(-0.51 -3.27)"/><path class="cls-24" d="M12.46,73c1.26,1,2.2.28,2.62-1.4-.37-2.55.39-7.55.69-10.92.15-2.07-3.22-2.59-3.84.15C11.59,63.34,12.4,71.76,12.46,73Z" transform="translate(-0.51 -3.27)"/><path class="cls-15" d="M15.57,44.39c-1.2,1.15-7.11,2.44-8.72,0,0-.28-.06-.8,0-1.09,1.83,1.46,6.58,1.6,8.62.33C15.48,43.87,15.52,44.13,15.57,44.39Z" transform="translate(-0.51 -3.27)"/><path class="cls-25" d="M11.93,27.92a6.41,6.41,0,0,1,2.51,2.14c.71,1,.67,3.26.65,3.56-.09,1,.7,9.46.34,10C15,45,8.68,45,6.81,43.28c-.62-.72-.3-3.3-1-7.36-.18-1.08-1-7,.24-8.91a2.51,2.51,0,0,1,1.76-.87C9.43,26.35,11.66,27.84,11.93,27.92Z" transform="translate(-0.51 -3.27)"/><polygon class="cls-26" points="14.62 20.25 13.88 21.64 12.73 20.86 13.54 19.45 14.62 20.25"/><path class="cls-27" d="M15,23.62a4.38,4.38,0,0,1-.6,1.12l-.18-.12v.3l.2.13a7.52,7.52,0,0,0,.88-1.5,4,4,0,0,0-1.08-.91V23A2.29,2.29,0,0,1,15,23.62Zm-.78,1-.77-.53.69-1.2.08.06v-.31l-.15-.1-.93,1.63,1.08.75Z" transform="translate(-0.51 -3.27)"/><path class="cls-12" d="M13.83,25.09a.81.81,0,0,1,.12.82c-.66,1.78-2.07,2.7-2,.73,0-.84-.26-1.68.58-2C13.18,24.47,13.76,25.06,13.83,25.09Z" transform="translate(-0.51 -3.27)"/><path class="cls-20" d="M14.72,21.41a9,9,0,0,1,0,1.37.91.91,0,0,1-.19.64c-.28.35-.4.41-.21.83s-.44,1.32-.7,1.76-.38.77-.75.89c-.93.31-1.71-.31-2.4-.87s-1.62-3.2-1.67-4c.22-1.5.9-2.64,3.33-2.8A2.68,2.68,0,0,1,14.72,21.41Z" transform="translate(-0.51 -3.27)"/><path class="cls-17" d="M12.67,25.12a7.28,7.28,0,0,1-.92,2.72c-1.14-.72-4,.17-4-1.4A7.17,7.17,0,0,0,9.48,22.9C9.59,22.26,13.07,23.31,12.67,25.12Z" transform="translate(-0.51 -3.27)"/><path class="cls-12" d="M13.73,23.38a.6.6,0,0,0-.12.86l-.6,0c0-.19.13-.27,0-.4-.29-.41-.94.46-1.56,1.14C10.52,26,9,25,9,24.82a3,3,0,0,1-.58-2.44c.26-1.14.25-2.5,1.25-3.23,1.71-1.26,4.17-1,5.27,1.83C15.47,22.42,14.32,22.48,13.73,23.38Z" transform="translate(-0.51 -3.27)"/><polygon class="cls-28" points="11.96 20.33 14.68 20.26 14.45 20.68 11.89 20.65 11.44 21.5 10.93 21.49 11.96 20.33"/><path class="cls-20" d="M12.15,24.08c-.08.53,0,1.35.26,1.38.56,0,.41-.48.49-1s.28-.8.1-.91C12.65,23.32,12.22,23.54,12.15,24.08Z" transform="translate(-0.51 -3.27)"/><path class="cls-16" d="M14.9,21a7.12,7.12,0,0,0-2.63-.56c1.16.49,1,1.45,1.55,1.94.71.62,2.7,1.19,2.79.74C16.84,22,15.7,21.29,14.9,21Z" transform="translate(-0.51 -3.27)"/><path class="cls-18" d="M8.67,21.48c.93,1.19,4.31,1.61,6.42,1.07.74-3-1.14-4-3-4.16C10,18.2,8.28,19.6,8.67,21.48Z" transform="translate(-0.51 -3.27)"/><path class="cls-29" d="M8.57,33.2v-.5l0-.62c0-.37.05-.74.08-1.11l.2.05c0,.38-.06.75-.08,1.12s-.06.74-.08,1.11l-.17,0Zm0-2.08,0-.18h0v.19Zm.7,2.32c.11,0,.2-.12.25-.23s-.06-.25-.08-.38c0,.09-.09.15-.13.14s-.15-.23-.15-.56c0-.49.1-.85.22-.83s.07.07.09.21l.14-.28c0-.24-.13-.39-.22-.41-.24-.05-.43.48-.43,1.29,0,.62.12,1,.31,1Zm.36,0,.5.07,0-.47-.3,0,0-.47.25,0,0-.47-.25,0,0-.4.29,0,0-.47-.48-.05c0,.38-.06.76-.08,1.14S9.65,33.1,9.63,33.48ZM8.57,30.93v.19L8.4,32c-.06.35-.13.7-.2,1.05L8,33l0-1.15c0-.38,0-.76,0-1.14l.21.08c0,.36,0,.71,0,1.06v.72h0c0-.23.07-.45.1-.68s.11-.67.16-1l.18.06Zm0,1.77,0,.48,0,0v-.5Zm-1.08-.17v-1c.07,0,.11-.12.11-.3s0-.26-.11-.3V30.5h0c.16.08.29.29.29.73s-.09.64-.2.71l.12.92-.21-.09ZM6,32c.19.12.31-.15.31-.57a1.34,1.34,0,0,0-.11-.6.87.87,0,0,0-.07-.17,1,1,0,0,1-.1-.31c0-.11,0-.18.09-.15a.55.55,0,0,1,.13.28l.12-.26a.92.92,0,0,0-.24-.5c-.17-.09-.3.15-.3.56A1.67,1.67,0,0,0,6,31l.07.16a.83.83,0,0,1,.09.3c0,.13,0,.18-.09.15a.64.64,0,0,1-.17-.38l-.14.22c.08.37.19.56.29.62ZM7.49,30.5v.44h0l-.08,0c0,.19,0,.39,0,.59l.07,0h0v1L7.42,32l-.08,0c0,.25,0,.5,0,.75l-.2-.09c0-.37,0-.73.08-1.09s0-.73.08-1.1l.24.11ZM6.43,32.23l.5.27,0-.45-.3-.16,0-.45.25.13,0-.45L6.73,31c0-.12,0-.25,0-.38l.3.15,0-.45-.49-.25c0,.36,0,.72-.08,1.09S6.46,31.87,6.43,32.23Z" transform="translate(-0.51 -3.27)"/><path class="cls-16" d="M12.59,29.08c-5.25,1.94,3.47,9.08,5,10.11,1.15.64,2-1.18,1.07-2.58C16.71,33.81,14.62,28.34,12.59,29.08Z" transform="translate(-0.51 -3.27)"/><path class="cls-20" d="M23,33.92c.24-.57,0-1.17.24-1.52a6.76,6.76,0,0,1,1.53-1.31c.2-.16.9,1.37.83,1.65A4,4,0,0,1,24.34,34C24.09,34.13,23.27,34.24,23,33.92Z" transform="translate(-0.51 -3.27)"/><path class="cls-20" d="M25.51,32.35l.9-.39c.23-.1.31.2.09.33l-.84.48C25.45,32.89,25.27,32.45,25.51,32.35Z" transform="translate(-0.51 -3.27)"/><path class="cls-20" d="M25.21,32.27h0a.25.25,0,0,1,.1-.32l1-.55c.26-.14.4.18.15.34l-1,.64A.2.2,0,0,1,25.21,32.27Z" transform="translate(-0.51 -3.27)"/><path class="cls-20" d="M25,31.87h0a.26.26,0,0,1,.12-.33L26.28,31c.29-.13.44.22.16.37L25.3,32A.21.21,0,0,1,25,31.87Z" transform="translate(-0.51 -3.27)"/><path class="cls-20" d="M24.83,31.05l1.07-.49c.27-.12.42.24.16.38l-1,.54C24.75,31.63,24.57,31.17,24.83,31.05Z" transform="translate(-0.51 -3.27)"/><path class="cls-20" d="M23.23,33.16a1.23,1.23,0,0,1,0-.87c.11-.33.29-.69.34-.83.15-.34.19-.28.34-.63.19.08.4.26.09.85,0,.15.08.22-.19.63C24.25,33.19,23.41,33.52,23.23,33.16Z" transform="translate(-0.51 -3.27)"/><path class="cls-16" d="M18.14,39.27c1.3.12,4.74-3.57,5.73-5.11.08-.8-.48-1.7-1-1.27s-4.38,2.7-5.95,3.88C16,37.85,17.18,38.62,18.14,39.27Z" transform="translate(-0.51 -3.27)"/><polygon class="cls-30" points="21.65 79.2 21.59 75.42 30.94 69.55 30.38 73.73 21.65 79.2"/><polygon class="cls-31" points="17.68 72.99 21.59 75.42 21.65 79.2 18.27 77.11 17.68 72.99"/><polygon class="cls-32" points="18.05 70.87 21.59 73.05 30.61 67.4 27.1 65.21 18.05 70.87"/><polygon class="cls-33" points="21.59 75.42 17.68 72.99 18.05 70.87 21.59 73.05 21.59 75.42"/><polygon class="cls-34" points="21.59 75.42 30.94 69.55 30.61 67.39 21.59 73.05 21.59 75.42"/><polygon class="cls-30" points="21.24 70.65 21.65 70.12 21.65 69.17 26.13 66.76 26.13 68.08 26.46 68.28 26.71 65.96 21.24 69.23 21.24 70.65"/><polygon class="cls-35" points="21.24 69.23 21.67 69.5 27.09 66.11 26.67 65.84 21.24 69.23"/><polygon class="cls-31" points="21.27 71.52 20.83 71.25 21.24 69.23 21.67 69.5 21.27 71.52"/><polygon class="cls-30" points="21.27 71.52 22.31 70.88 22.3 69.58 26.46 66.97 26.46 68.28 27.4 67.71 27.09 66.1 21.67 69.5 21.27 71.52"/><polygon class="cls-32" points="22.83 74.21 23.24 74.47 24.31 73.81 23.91 73.55 22.83 74.21"/><polygon class="cls-33" points="23.04 76.3 22.83 76.17 22.83 74.21 23.24 74.47 23.04 76.3"/><polygon class="cls-34" points="23.04 76.3 24.1 75.63 24.31 73.8 23.24 74.47 23.04 76.3"/><polygon class="cls-32" points="28.51 70.63 28.92 70.89 29.99 70.23 29.59 69.97 28.51 70.63"/><polygon class="cls-33" points="28.72 72.72 28.51 72.59 28.51 70.63 28.92 70.89 28.72 72.72"/><polygon class="cls-34" points="28.72 72.72 29.78 72.05 29.99 70.22 28.92 70.89 28.72 72.72"/><polygon class="cls-2" points="41.6 84.46 62.92 96.45 77.36 88.38 56.03 76.58 41.6 84.46"/><path class="cls-2" d="M48.66,87.69c7,0,12.64,2.94,12.64,6.58s-5.66,6.58-12.64,6.58S36,97.9,36,94.27,41.68,87.69,48.66,87.69Z" transform="translate(-0.51 -3.27)"/><polygon class="cls-3" points="44.7 53.16 62.85 63.35 62.85 95.36 44.7 85.09 44.7 53.16"/><polygon class="cls-4" points="75.13 56.49 62.84 63.36 62.84 95.36 75.13 88.36 75.13 56.49"/><polygon class="cls-5" points="44.7 53.15 62.84 63.35 75.13 56.49 56.97 46.44 44.7 53.15"/><polygon class="cls-36" points="44.7 53.16 62.85 63.35 62.85 69.45 44.7 59.17 44.7 53.16"/><path class="cls-4" d="M54.29,70.9a15.13,15.13,0,0,1,7.07,11.94c0,4.41-3.17,6.21-7.07,4a15.1,15.1,0,0,1-7.07-11.94C47.22,70.52,50.38,68.72,54.29,70.9Z" transform="translate(-0.51 -3.27)"/><path class="cls-12" d="M54.29,72.13a12.81,12.81,0,0,1,6,10.1c0,3.73-2.68,5.26-6,3.41a12.78,12.78,0,0,1-6-10.1C48.31,71.81,51,70.28,54.29,72.13Z" transform="translate(-0.51 -3.27)"/><path class="cls-37" d="M40.15,72.13a12.79,12.79,0,0,0-6,10.1c0,3.73,2.68,5.26,6,3.41a12.81,12.81,0,0,0,6-10.1C46.13,71.81,43.45,70.28,40.15,72.13Z" transform="translate(-0.51 -3.27)"/><path class="cls-13" d="M39.48,70.54h0a15.1,15.1,0,0,0-7.07,11.94c0,4.41,3.16,6.21,7.07,4h0a15.13,15.13,0,0,0,7.07-11.94C46.55,70.16,43.38,68.35,39.48,70.54Zm0,14.74h0c-3.31,1.85-6,.32-6-3.41a12.78,12.78,0,0,1,6-10.1h0c3.3-1.85,6-.32,6,3.41A12.81,12.81,0,0,1,39.48,85.28Z" transform="translate(-0.51 -3.27)"/><path class="cls-28" d="M40.15,70.9h0a15.15,15.15,0,0,0-7.07,11.94c0,4.41,3.17,6.21,7.07,4h0a15.13,15.13,0,0,0,7.07-11.94C47.22,70.52,44.05,68.72,40.15,70.9Zm0,14.74h0c-3.3,1.85-6,.32-6-3.41a12.81,12.81,0,0,1,6-10.1h0c3.3-1.85,6-.32,6,3.41A12.81,12.81,0,0,1,40.15,85.64Z" transform="translate(-0.51 -3.27)"/><path class="cls-4" d="M40.15,71.65h0a13.72,13.72,0,0,0-6.4,10.82c0,4,2.87,5.63,6.4,3.65h0a13.72,13.72,0,0,0,6.4-10.82C46.55,71.3,43.68,69.67,40.15,71.65Zm0,13.36h0c-3,1.67-5.42.29-5.42-3.09a11.62,11.62,0,0,1,5.42-9.16h0c3-1.67,5.42-.29,5.42,3.09A11.62,11.62,0,0,1,40.15,85Z" transform="translate(-0.51 -3.27)"/><path class="cls-38" d="M41.18,74.2a10,10,0,0,0-4.66,7.86c0,2.9,2.09,4.09,4.66,2.65a10,10,0,0,0,4.65-7.86C45.83,74,43.75,72.76,41.18,74.2Z" transform="translate(-0.51 -3.27)"/><path class="cls-39" d="M59.33,85.34a4.65,4.65,0,0,1-3.76-.6,12.81,12.81,0,0,1-6-10.1,4.81,4.81,0,0,1,.94-3.11,4.58,4.58,0,0,1,3.76.6,12.81,12.81,0,0,1,6,10.1A4.77,4.77,0,0,1,59.33,85.34Z" transform="translate(-0.51 -3.27)"/><path class="cls-40" d="M58.36,64.63v3.24L62,70V66.7Z" transform="translate(-0.51 -3.27)"/><polygon class="cls-8" points="58.08 61.48 58.08 64.49 61.52 66.43 61.52 63.42 58.08 61.48"/><path class="cls-36" d="M67.13,68.13V92.34c0,2.1-2.55,3.48-2.55,1.4V69.68C64.58,67.56,67.13,65.93,67.13,68.13Z" transform="translate(-0.51 -3.27)"/><path class="cls-4" d="M66.67,67.91v24.2a2.39,2.39,0,0,1-1.87,2.44,1.25,1.25,0,0,1-.22-.81V69.68c0-1.41,1.13-2.6,1.88-2.59A1.3,1.3,0,0,1,66.67,67.91Z" transform="translate(-0.51 -3.27)"/><path class="cls-36" d="M71,66V90.22c0,2.1-2.54,3.48-2.54,1.4V67.56C68.42,65.44,71,63.81,71,66Z" transform="translate(-0.51 -3.27)"/><path class="cls-4" d="M70.5,65.79V90c0,1.39-1.11,2.47-1.87,2.43a1.26,1.26,0,0,1-.21-.8V67.56c0-1.41,1.12-2.6,1.88-2.6A1.37,1.37,0,0,1,70.5,65.79Z" transform="translate(-0.51 -3.27)"/><path class="cls-36" d="M74.8,63.89v24.2c0,2.11-2.55,3.49-2.55,1.41V65.43C72.25,63.32,74.8,61.69,74.8,63.89Z" transform="translate(-0.51 -3.27)"/><path class="cls-4" d="M74.34,63.67v24.2c0,1.39-1.12,2.47-1.87,2.43a1.2,1.2,0,0,1-.22-.8V65.43c0-1.4,1.13-2.59,1.88-2.59A1.36,1.36,0,0,1,74.34,63.67Z" transform="translate(-0.51 -3.27)"/><path class="cls-36" d="M58.36,90.36v3.25L62,95.68V92.43Z" transform="translate(-0.51 -3.27)"/><path class="cls-19" d="M58.26,90.41v3.25l3.67,2.08V92.49Z" transform="translate(-0.51 -3.27)"/><path class="cls-14" d="M48.29,59.41a3.44,3.44,0,0,1,1.62,2.73c0,1-.72,1.42-1.62.92a3.46,3.46,0,0,1-1.61-2.73C46.68,59.32,47.4,58.91,48.29,59.41Z" transform="translate(-0.51 -3.27)"/><path class="cls-5" d="M46.54,60l2,3.23.72-.39c1.32-.73-.65-4-1.93-3.25Z" transform="translate(-0.51 -3.27)"/><g class="cls-41"><polygon class="cls-42" points="46.99 58.39 45.94 56.46 45.82 56.53 46.99 58.39"/><polygon class="cls-35" points="46.99 58.39 48.05 60.32 48.17 60.25 46.99 58.39"/><polygon class="cls-42" points="46.99 58.39 45.82 56.53 45.7 56.61 46.99 58.39"/><polygon class="cls-43" points="46.99 58.39 48.17 60.25 48.29 60.17 46.99 58.39"/><polygon class="cls-42" points="46.99 58.39 45.7 56.61 45.58 56.69 46.99 58.39"/><polygon class="cls-44" points="46.99 58.39 48.29 60.17 48.4 60.09 46.99 58.39"/><polygon class="cls-42" points="46.99 58.39 45.58 56.69 45.48 56.78 46.99 58.39"/><polygon class="cls-45" points="46.99 58.39 48.4 60.09 48.51 59.99 46.99 58.39"/><polygon class="cls-42" points="46.99 58.39 45.48 56.78 45.38 56.88 46.99 58.39"/><polygon class="cls-46" points="46.99 58.39 48.51 59.99 48.61 59.9 46.99 58.39"/><polygon class="cls-42" points="46.99 58.39 45.38 56.88 45.28 56.99 46.99 58.39"/><polygon class="cls-47" points="46.99 58.39 48.61 59.9 48.71 59.79 46.99 58.39"/><polygon class="cls-42" points="46.99 58.39 45.28 56.99 45.19 57.1 46.99 58.39"/><polygon class="cls-48" points="46.99 58.39 48.71 59.79 48.79 59.68 46.99 58.39"/><polygon class="cls-42" points="46.99 58.39 45.19 57.1 45.11 57.22 46.99 58.39"/><polygon class="cls-49" points="46.99 58.39 48.79 59.68 48.88 59.56 46.99 58.39"/><polygon class="cls-42" points="46.99 58.39 45.11 57.22 45.04 57.34 46.99 58.39"/><polygon class="cls-50" points="46.99 58.39 48.88 59.56 48.95 59.44 46.99 58.39"/><polygon class="cls-42" points="46.99 58.39 45.04 57.34 44.97 57.46 46.99 58.39"/><polygon class="cls-51" points="46.99 58.39 48.95 59.44 49.01 59.32 46.99 58.39"/><polygon class="cls-42" points="46.99 58.39 44.97 57.46 44.92 57.59 46.99 58.39"/><polygon class="cls-52" points="46.99 58.39 49.01 59.32 49.07 59.19 46.99 58.39"/><polygon class="cls-42" points="46.99 58.39 44.92 57.59 44.87 57.72 46.99 58.39"/><polygon class="cls-53" points="46.99 58.39 49.07 59.19 49.12 59.06 46.99 58.39"/><polygon class="cls-42" points="46.99 58.39 44.87 57.72 44.83 57.86 46.99 58.39"/><polygon class="cls-54" points="46.99 58.39 49.12 59.06 49.16 58.92 46.99 58.39"/><polygon class="cls-42" points="46.99 58.39 44.83 57.86 44.8 57.99 46.99 58.39"/><polygon class="cls-55" points="46.99 58.39 49.16 58.92 49.19 58.79 46.99 58.39"/><polygon class="cls-42" points="46.99 58.39 44.8 57.99 44.78 58.13 46.99 58.39"/><polygon class="cls-56" points="46.99 58.39 49.19 58.79 49.21 58.65 46.99 58.39"/><polygon class="cls-57" points="46.99 58.39 44.78 58.13 44.77 58.27 46.99 58.39"/><polygon class="cls-58" points="46.99 58.39 49.21 58.65 49.22 58.51 46.99 58.39"/><polygon class="cls-59" points="46.99 58.39 44.77 58.27 44.76 58.41 46.99 58.39"/><polygon class="cls-60" points="46.99 58.39 49.22 58.51 49.22 58.37 46.99 58.39"/><polygon class="cls-61" points="46.99 58.39 44.76 58.41 44.77 58.55 46.99 58.39"/><polygon class="cls-62" points="46.99 58.39 49.22 58.37 49.22 58.23 46.99 58.39"/><polygon class="cls-63" points="46.99 58.39 44.77 58.55 44.78 58.69 46.99 58.39"/><polygon class="cls-64" points="46.99 58.39 49.22 58.23 49.2 58.09 46.99 58.39"/><polygon class="cls-65" points="46.99 58.39 44.78 58.69 44.81 58.83 46.99 58.39"/><polygon class="cls-66" points="46.99 58.39 49.2 58.09 49.18 57.95 46.99 58.39"/><polygon class="cls-67" points="46.99 58.39 44.81 58.83 44.84 58.97 46.99 58.39"/><polygon class="cls-68" points="46.99 58.39 49.18 57.95 49.14 57.81 46.99 58.39"/><polygon class="cls-69" points="46.99 58.39 44.84 58.97 44.88 59.1 46.99 58.39"/><polygon class="cls-70" points="46.99 58.39 49.14 57.81 49.1 57.68 46.99 58.39"/><polygon class="cls-71" points="46.99 58.39 44.88 59.1 44.94 59.23 46.99 58.39"/><polygon class="cls-72" points="46.99 58.39 49.1 57.68 49.05 57.55 46.99 58.39"/><polygon class="cls-73" points="46.99 58.39 44.94 59.23 44.99 59.36 46.99 58.39"/><polygon class="cls-5" points="46.99 58.39 49.05 57.55 48.99 57.42 46.99 58.39"/><polygon class="cls-74" points="46.99 58.39 44.99 59.36 45.06 59.48 46.99 58.39"/><polygon class="cls-75" points="46.99 58.39 48.99 57.42 48.92 57.3 46.99 58.39"/><polygon class="cls-75" points="46.99 58.39 45.06 59.48 45.14 59.6 46.99 58.39"/><polygon class="cls-74" points="46.99 58.39 48.92 57.3 48.85 57.18 46.99 58.39"/><polygon class="cls-5" points="46.99 58.39 45.14 59.6 45.22 59.72 46.99 58.39"/><polygon class="cls-73" points="46.99 58.39 48.85 57.18 48.77 57.06 46.99 58.39"/><polygon class="cls-72" points="46.99 58.39 45.22 59.72 45.31 59.83 46.99 58.39"/><polygon class="cls-71" points="46.99 58.39 48.77 57.06 48.67 56.95 46.99 58.39"/><polygon class="cls-70" points="46.99 58.39 45.31 59.83 45.41 59.93 46.99 58.39"/><polygon class="cls-69" points="46.99 58.39 48.67 56.95 48.58 56.85 46.99 58.39"/><polygon class="cls-68" points="46.99 58.39 45.41 59.93 45.51 60.03 46.99 58.39"/><polygon class="cls-67" points="46.99 58.39 48.58 56.85 48.48 56.75 46.99 58.39"/><polygon class="cls-66" points="46.99 58.39 45.51 60.03 45.62 60.12 46.99 58.39"/><polygon class="cls-65" points="46.99 58.39 48.48 56.75 48.37 56.66 46.99 58.39"/><polygon class="cls-64" points="46.99 58.39 45.62 60.12 45.74 60.2 46.99 58.39"/><polygon class="cls-63" points="46.99 58.39 48.37 56.66 48.25 56.58 46.99 58.39"/><polygon class="cls-62" points="46.99 58.39 45.74 60.2 45.86 60.27 46.99 58.39"/><polygon class="cls-61" points="46.99 58.39 48.25 56.58 48.13 56.51 46.99 58.39"/><polygon class="cls-60" points="46.99 58.39 45.86 60.27 45.98 60.34 46.99 58.39"/><polygon class="cls-59" points="46.99 58.39 48.13 56.51 48 56.44 46.99 58.39"/><polygon class="cls-58" points="46.99 58.39 45.98 60.34 46.11 60.4 46.99 58.39"/><polygon class="cls-57" points="46.99 58.39 48 56.44 47.87 56.38 46.99 58.39"/><polygon class="cls-56" points="46.99 58.39 46.11 60.4 46.24 60.45 46.99 58.39"/><polygon class="cls-42" points="46.99 58.39 47.87 56.38 47.74 56.33 46.99 58.39"/><polygon class="cls-55" points="46.99 58.39 46.24 60.45 46.38 60.5 46.99 58.39"/><polygon class="cls-42" points="46.99 58.39 47.74 56.33 47.6 56.28 46.99 58.39"/><polygon class="cls-54" points="46.99 58.39 46.38 60.5 46.52 60.53 46.99 58.39"/><polygon class="cls-42" points="46.99 58.39 47.6 56.28 47.47 56.25 46.99 58.39"/><polygon class="cls-53" points="46.99 58.39 46.52 60.53 46.66 60.56 46.99 58.39"/><polygon class="cls-42" points="46.99 58.39 47.47 56.25 47.33 56.23 46.99 58.39"/><polygon class="cls-52" points="46.99 58.39 46.66 60.56 46.8 60.57 46.99 58.39"/><polygon class="cls-42" points="46.99 58.39 47.33 56.23 47.18 56.21 46.99 58.39"/><polygon class="cls-51" points="46.99 58.39 46.8 60.57 46.95 60.58 46.99 58.39"/><polygon class="cls-42" points="46.99 58.39 47.18 56.21 47.04 56.2 46.99 58.39"/><polygon class="cls-50" points="46.99 58.39 46.95 60.58 47.09 60.58 46.99 58.39"/><polygon class="cls-42" points="46.99 58.39 47.04 56.2 46.9 56.2 46.99 58.39"/><polygon class="cls-49" points="46.99 58.39 47.09 60.58 47.23 60.57 46.99 58.39"/><polygon class="cls-42" points="46.99 58.39 46.9 56.2 46.76 56.21 46.99 58.39"/><polygon class="cls-48" points="46.99 58.39 47.23 60.57 47.37 60.55 46.99 58.39"/><polygon class="cls-42" points="46.99 58.39 46.76 56.21 46.61 56.23 46.99 58.39"/><polygon class="cls-47" points="46.99 58.39 47.37 60.55 47.51 60.52 46.99 58.39"/><polygon class="cls-42" points="46.99 58.39 46.61 56.23 46.47 56.26 46.99 58.39"/><polygon class="cls-46" points="46.99 58.39 47.51 60.52 47.65 60.48 46.99 58.39"/><polygon class="cls-42" points="46.99 58.39 46.47 56.26 46.34 56.3 46.99 58.39"/><polygon class="cls-45" points="46.99 58.39 47.65 60.48 47.78 60.44 46.99 58.39"/><polygon class="cls-42" points="46.99 58.39 46.34 56.3 46.2 56.34 46.99 58.39"/><polygon class="cls-44" points="46.99 58.39 47.78 60.44 47.92 60.38 46.99 58.39"/><polygon class="cls-42" points="46.99 58.39 46.2 56.34 46.07 56.4 46.99 58.39"/><polygon class="cls-43" points="46.99 58.39 47.92 60.38 48.05 60.32 46.99 58.39"/><polygon class="cls-42" points="46.99 58.39 46.07 56.4 45.94 56.46 46.99 58.39"/></g><path class="cls-16" d="M47.5,60.47a2.23,2.23,0,0,1,1.06,1.79c0,.66-.47.93-1.06.6a2.29,2.29,0,0,1-1.06-1.79C46.44,60.41,46.92,60.14,47.5,60.47Z" transform="translate(-0.51 -3.27)"/><path class="cls-3" d="M47.5,60.61a2,2,0,0,1,.93,1.57c0,.58-.41.82-.93.53a2,2,0,0,1-.93-1.57C46.57,60.56,47,60.32,47.5,60.61Z" transform="translate(-0.51 -3.27)"/><path class="cls-14" d="M52.08,61.56a3.44,3.44,0,0,1,1.62,2.73c0,1-.72,1.42-1.62.92a3.46,3.46,0,0,1-1.61-2.73C50.47,61.47,51.19,61.06,52.08,61.56Z" transform="translate(-0.51 -3.27)"/><path class="cls-5" d="M50.33,62.18l2,3.23L53,65c1.32-.73-.65-4-1.93-3.25Z" transform="translate(-0.51 -3.27)"/><g class="cls-76"><polygon class="cls-42" points="50.78 60.53 49.73 58.6 49.61 58.67 50.78 60.53"/><polygon class="cls-35" points="50.78 60.53 51.84 62.47 51.96 62.4 50.78 60.53"/><polygon class="cls-42" points="50.78 60.53 49.61 58.67 49.49 58.75 50.78 60.53"/><polygon class="cls-43" points="50.78 60.53 51.96 62.4 52.08 62.32 50.78 60.53"/><polygon class="cls-42" points="50.78 60.53 49.49 58.75 49.37 58.84 50.78 60.53"/><polygon class="cls-44" points="50.78 60.53 52.08 62.32 52.19 62.23 50.78 60.53"/><polygon class="cls-42" points="50.78 60.53 49.37 58.84 49.27 58.93 50.78 60.53"/><polygon class="cls-45" points="50.78 60.53 52.19 62.23 52.3 62.14 50.78 60.53"/><polygon class="cls-42" points="50.78 60.53 49.27 58.93 49.16 59.03 50.78 60.53"/><polygon class="cls-46" points="50.78 60.53 52.3 62.14 52.4 62.04 50.78 60.53"/><polygon class="cls-42" points="50.78 60.53 49.16 59.03 49.07 59.13 50.78 60.53"/><polygon class="cls-47" points="50.78 60.53 52.4 62.04 52.5 61.94 50.78 60.53"/><polygon class="cls-42" points="50.78 60.53 49.07 59.13 48.98 59.24 50.78 60.53"/><polygon class="cls-48" points="50.78 60.53 52.5 61.94 52.58 61.83 50.78 60.53"/><polygon class="cls-42" points="50.78 60.53 48.98 59.24 48.9 59.36 50.78 60.53"/><polygon class="cls-49" points="50.78 60.53 52.58 61.83 52.66 61.71 50.78 60.53"/><polygon class="cls-42" points="50.78 60.53 48.9 59.36 48.83 59.48 50.78 60.53"/><polygon class="cls-50" points="50.78 60.53 52.66 61.71 52.74 61.59 50.78 60.53"/><polygon class="cls-42" points="50.78 60.53 48.83 59.48 48.76 59.61 50.78 60.53"/><polygon class="cls-51" points="50.78 60.53 52.74 61.59 52.8 61.46 50.78 60.53"/><polygon class="cls-42" points="50.78 60.53 48.76 59.61 48.71 59.73 50.78 60.53"/><polygon class="cls-52" points="50.78 60.53 52.8 61.46 52.86 61.34 50.78 60.53"/><polygon class="cls-42" points="50.78 60.53 48.71 59.73 48.66 59.87 50.78 60.53"/><polygon class="cls-53" points="50.78 60.53 52.86 61.34 52.91 61.2 50.78 60.53"/><polygon class="cls-42" points="50.78 60.53 48.66 59.87 48.62 60 50.78 60.53"/><polygon class="cls-54" points="50.78 60.53 52.91 61.2 52.95 61.07 50.78 60.53"/><polygon class="cls-42" points="50.78 60.53 48.62 60 48.59 60.14 50.78 60.53"/><polygon class="cls-55" points="50.78 60.53 52.95 61.07 52.98 60.93 50.78 60.53"/><polygon class="cls-42" points="50.78 60.53 48.59 60.14 48.57 60.28 50.78 60.53"/><polygon class="cls-56" points="50.78 60.53 52.98 60.93 53 60.79 50.78 60.53"/><polygon class="cls-57" points="50.78 60.53 48.57 60.28 48.55 60.42 50.78 60.53"/><polygon class="cls-58" points="50.78 60.53 53 60.79 53.01 60.65 50.78 60.53"/><polygon class="cls-59" points="50.78 60.53 48.55 60.42 48.55 60.56 50.78 60.53"/><polygon class="cls-60" points="50.78 60.53 53.01 60.65 53.01 60.51 50.78 60.53"/><polygon class="cls-61" points="50.78 60.53 48.55 60.56 48.56 60.7 50.78 60.53"/><polygon class="cls-62" points="50.78 60.53 53.01 60.51 53.01 60.37 50.78 60.53"/><polygon class="cls-63" points="50.78 60.53 48.56 60.7 48.57 60.84 50.78 60.53"/><polygon class="cls-64" points="50.78 60.53 53.01 60.37 52.99 60.23 50.78 60.53"/><polygon class="cls-65" points="50.78 60.53 48.57 60.84 48.6 60.98 50.78 60.53"/><polygon class="cls-66" points="50.78 60.53 52.99 60.23 52.97 60.09 50.78 60.53"/><polygon class="cls-67" points="50.78 60.53 48.6 60.98 48.63 61.11 50.78 60.53"/><polygon class="cls-68" points="50.78 60.53 52.97 60.09 52.93 59.96 50.78 60.53"/><polygon class="cls-69" points="50.78 60.53 48.63 61.11 48.67 61.25 50.78 60.53"/><polygon class="cls-70" points="50.78 60.53 52.93 59.96 52.89 59.82 50.78 60.53"/><polygon class="cls-71" points="50.78 60.53 48.67 61.25 48.72 61.38 50.78 60.53"/><polygon class="cls-72" points="50.78 60.53 52.89 59.82 52.84 59.69 50.78 60.53"/><polygon class="cls-73" points="50.78 60.53 48.72 61.38 48.78 61.51 50.78 60.53"/><polygon class="cls-5" points="50.78 60.53 52.84 59.69 52.78 59.56 50.78 60.53"/><polygon class="cls-74" points="50.78 60.53 48.78 61.51 48.85 61.63 50.78 60.53"/><polygon class="cls-75" points="50.78 60.53 52.78 59.56 52.71 59.44 50.78 60.53"/><polygon class="cls-75" points="50.78 60.53 48.85 61.63 48.93 61.75 50.78 60.53"/><polygon class="cls-74" points="50.78 60.53 52.71 59.44 52.64 59.32 50.78 60.53"/><polygon class="cls-5" points="50.78 60.53 48.93 61.75 49.01 61.86 50.78 60.53"/><polygon class="cls-73" points="50.78 60.53 52.64 59.32 52.55 59.21 50.78 60.53"/><polygon class="cls-72" points="50.78 60.53 49.01 61.86 49.1 61.97 50.78 60.53"/><polygon class="cls-71" points="50.78 60.53 52.55 59.21 52.47 59.1 50.78 60.53"/><polygon class="cls-70" points="50.78 60.53 49.1 61.97 49.2 62.08 50.78 60.53"/><polygon class="cls-69" points="50.78 60.53 52.47 59.1 52.37 58.99 50.78 60.53"/><polygon class="cls-68" points="50.78 60.53 49.2 62.08 49.3 62.17 50.78 60.53"/><polygon class="cls-67" points="50.78 60.53 52.37 58.99 52.26 58.9 50.78 60.53"/><polygon class="cls-66" points="50.78 60.53 49.3 62.17 49.41 62.26 50.78 60.53"/><polygon class="cls-65" points="50.78 60.53 52.26 58.9 52.15 58.81 50.78 60.53"/><polygon class="cls-64" points="50.78 60.53 49.41 62.26 49.53 62.34 50.78 60.53"/><polygon class="cls-63" points="50.78 60.53 52.15 58.81 52.04 58.73 50.78 60.53"/><polygon class="cls-62" points="50.78 60.53 49.53 62.34 49.65 62.42 50.78 60.53"/><polygon class="cls-61" points="50.78 60.53 52.04 58.73 51.92 58.65 50.78 60.53"/><polygon class="cls-60" points="50.78 60.53 49.65 62.42 49.77 62.49 50.78 60.53"/><polygon class="cls-59" points="50.78 60.53 51.92 58.65 51.79 58.58 50.78 60.53"/><polygon class="cls-58" points="50.78 60.53 49.77 62.49 49.9 62.55 50.78 60.53"/><polygon class="cls-57" points="50.78 60.53 51.79 58.58 51.66 58.52 50.78 60.53"/><polygon class="cls-56" points="50.78 60.53 49.9 62.55 50.03 62.6 50.78 60.53"/><polygon class="cls-42" points="50.78 60.53 51.66 58.52 51.53 58.47 50.78 60.53"/><polygon class="cls-55" points="50.78 60.53 50.03 62.6 50.17 62.64 50.78 60.53"/><polygon class="cls-42" points="50.78 60.53 51.53 58.47 51.39 58.43 50.78 60.53"/><polygon class="cls-54" points="50.78 60.53 50.17 62.64 50.31 62.67 50.78 60.53"/><polygon class="cls-42" points="50.78 60.53 51.39 58.43 51.26 58.4 50.78 60.53"/><polygon class="cls-53" points="50.78 60.53 50.31 62.67 50.45 62.7 50.78 60.53"/><polygon class="cls-42" points="50.78 60.53 51.26 58.4 51.12 58.37 50.78 60.53"/><polygon class="cls-52" points="50.78 60.53 50.45 62.7 50.59 62.72 50.78 60.53"/><polygon class="cls-42" points="50.78 60.53 51.12 58.37 50.97 58.35 50.78 60.53"/><polygon class="cls-51" points="50.78 60.53 50.59 62.72 50.73 62.72 50.78 60.53"/><polygon class="cls-42" points="50.78 60.53 50.97 58.35 50.83 58.35 50.78 60.53"/><polygon class="cls-50" points="50.78 60.53 50.73 62.72 50.88 62.72 50.78 60.53"/><polygon class="cls-42" points="50.78 60.53 50.83 58.35 50.69 58.35 50.78 60.53"/><polygon class="cls-49" points="50.78 60.53 50.88 62.72 51.02 62.71 50.78 60.53"/><polygon class="cls-42" points="50.78 60.53 50.69 58.35 50.55 58.36 50.78 60.53"/><polygon class="cls-48" points="50.78 60.53 51.02 62.71 51.16 62.69 50.78 60.53"/><polygon class="cls-42" points="50.78 60.53 50.55 58.36 50.4 58.38 50.78 60.53"/><polygon class="cls-47" points="50.78 60.53 51.16 62.69 51.3 62.66 50.78 60.53"/><polygon class="cls-42" points="50.78 60.53 50.4 58.38 50.26 58.41 50.78 60.53"/><polygon class="cls-46" points="50.78 60.53 51.3 62.66 51.44 62.63 50.78 60.53"/><polygon class="cls-42" points="50.78 60.53 50.26 58.41 50.13 58.44 50.78 60.53"/><polygon class="cls-45" points="50.78 60.53 51.44 62.63 51.58 62.58 50.78 60.53"/><polygon class="cls-42" points="50.78 60.53 50.13 58.44 49.99 58.49 50.78 60.53"/><polygon class="cls-44" points="50.78 60.53 51.58 62.58 51.71 62.53 50.78 60.53"/><polygon class="cls-42" points="50.78 60.53 49.99 58.49 49.86 58.54 50.78 60.53"/><polygon class="cls-43" points="50.78 60.53 51.71 62.53 51.84 62.47 50.78 60.53"/><polygon class="cls-42" points="50.78 60.53 49.86 58.54 49.73 58.6 50.78 60.53"/></g><path class="cls-16" d="M51.29,62.61a2.26,2.26,0,0,1,1.06,1.79c0,.66-.47.93-1.06.6a2.26,2.26,0,0,1-1.06-1.79C50.23,62.55,50.71,62.28,51.29,62.61Z" transform="translate(-0.51 -3.27)"/><path class="cls-3" d="M51.29,62.76a2,2,0,0,1,.93,1.57c0,.58-.41.82-.93.53a2,2,0,0,1-.93-1.57C50.36,62.71,50.78,62.47,51.29,62.76Z" transform="translate(-0.51 -3.27)"/><path class="cls-18" d="M44.85,91.56c1.51-.61.7-6.21-.05-11.32-1.46-.44-3.64-1.93-6.43-1.14-2.72,5.33,3,6.09,3.31,10.47C42.28,90.46,43.37,92.15,44.85,91.56Z" transform="translate(-0.51 -3.27)"/><path class="cls-24" d="M32.77,93.75c-.77.57-.2,3.42,1.52,2.85a108.16,108.16,0,0,1,10.56-5,2.44,2.44,0,0,0-3.26-2.74C38.24,89.59,33.78,93,32.77,93.75Z" transform="translate(-0.51 -3.27)"/><path class="cls-24" d="M55.27,94.22C53.73,89.07,51,83.12,47,78.9a17,17,0,0,1-6.19.66c-3.64,5.85,8.61,11.62,10.29,16.31C52.15,96.34,54.84,95.85,55.27,94.22Z" transform="translate(-0.51 -3.27)"/><path class="cls-24" d="M42.05,98.44c-.65,1.41-.66,3.25.63,3.41,1.76-.77,8.45-3.94,11.65-5.34,2.39-1.41.47-4.18-2.35-3.41A65.49,65.49,0,0,0,42.05,98.44Z" transform="translate(-0.51 -3.27)"/><path class="cls-23" d="M42.49,101.63c-1.47.5-2.21,2.25-3.34,2.7a1.75,1.75,0,0,1-1.6-.09c-.46-.49.07-1.07.42-1.63s1.07-.88,1.75-1.82a16.73,16.73,0,0,1,1.77-2.65,1.09,1.09,0,0,1,1.35.22c.15.25.22-.09.44,0C44.4,98.81,43.94,101.13,42.49,101.63Z" transform="translate(-0.51 -3.27)"/><path class="cls-77" d="M39.67,103.73c-.93.88-3.77,1-2-1.38.57-.76,1.56-1.29,2-1.93s.34-1.24.66-1.72,1.1-1,1.7-.66,0,1.69-.71,3.07A11.58,11.58,0,0,1,39.67,103.73Z" transform="translate(-0.51 -3.27)"/><path class="cls-78" d="M39.44,103.58c-.94.89-3.77,1-2-1.38.56-.76,1.55-1.28,2-1.92s.34-1.24.65-1.73,1.1-1,1.71-.65,0,1.69-.72,3.06A11.37,11.37,0,0,1,39.44,103.58Z" transform="translate(-0.51 -3.27)"/><path class="cls-23" d="M33.72,96.59c-2.23.51-2.54,2.38-3.41,2.75a1.67,1.67,0,0,1-1.59-.09c-.47-.49.07-1.07.41-1.63s1.07-.88,1.75-1.82a17.47,17.47,0,0,1,1.78-2.65,1.07,1.07,0,0,1,1.34.22c.16.25.23-.09.44,0C35.57,93.82,35.22,96.25,33.72,96.59Z" transform="translate(-0.51 -3.27)"/><path class="cls-77" d="M28.67,97.24c-.49,1.18.41,3.82,2,1.3.51-.8.63-1.9,1.08-2.53s1.05-.77,1.39-1.23.53-1.37,0-1.8-1.6.62-2.63,1.78A11.42,11.42,0,0,0,28.67,97.24Z" transform="translate(-0.51 -3.27)"/><path class="cls-78" d="M28.41,97.13c-.49,1.18.41,3.83,2,1.3.51-.79.64-1.89,1.09-2.53s1-.76,1.39-1.23.52-1.37,0-1.8-1.6.62-2.64,1.79A11.74,11.74,0,0,0,28.41,97.13Z" transform="translate(-0.51 -3.27)"/><path class="cls-15" d="M36.8,61.07C33.09,66.68,46.87,66.26,49.07,66c1.56-.31,1.54-2.76-.33-3.27C44.89,61.78,38.24,58.9,36.8,61.07Z" transform="translate(-0.51 -3.27)"/><path class="cls-16" d="M48.88,66c1.56.38,6.71-3,8.2-4.45.25-.85-.26-1.94-1-1.58s-5.25,1.8-7.37,2.78A2.07,2.07,0,0,0,48.88,66Z" transform="translate(-0.51 -3.27)"/><path class="cls-15" d="M48.47,80.59c-1.47,1.26-8.73,2.68-10.72,0,0-.32-.07-.89,0-1.2,2.24,1.6,8.08,1.75,10.58.36Z" transform="translate(-0.51 -3.27)"/><path class="cls-25" d="M44,62.47a7.84,7.84,0,0,1,3.09,2.35c.86,1.11.82,3.59.78,3.92-.11,1.05.87,10.4.42,11-.51,1.57-8.29,1.54-10.58-.36-.77-.8-.38-3.64-1.24-8.11-.23-1.18-1.3-7.64.28-9.8a3.31,3.31,0,0,1,2.16-1C40.93,60.73,43.66,62.38,44,62.47Z" transform="translate(-0.51 -3.27)"/><path class="cls-16" d="M44.81,63.75c-6.46,2.13,4.26,10,6.16,11.12,1.41.7,2.46-1.3,1.33-2.84C49.87,68.94,47.31,62.92,44.81,63.75Z" transform="translate(-0.51 -3.27)"/><polygon class="cls-26" points="47.42 54.36 46.5 55.89 45.1 55.03 46.09 53.47 47.42 54.36"/><path class="cls-27" d="M47.7,57.74A4.36,4.36,0,0,1,47,59l-.22-.13v.32l.25.15a9.43,9.43,0,0,0,1.08-1.65,4.62,4.62,0,0,0-1.33-1V57A2.55,2.55,0,0,1,47.7,57.74Zm-1,1.1-1-.59.84-1.31.11.06v-.34l-.19-.11-1.14,1.79,1.33.82Z" transform="translate(-0.51 -3.27)"/><path class="cls-12" d="M46.33,59.35a.81.81,0,0,1,.14.9c-.8,2-2.53,3-2.44.81,0-.92-.32-1.85.72-2.16A2,2,0,0,1,46.33,59.35Z" transform="translate(-0.51 -3.27)"/><path class="cls-20" d="M47.43,55.31a10.81,10.81,0,0,1,.06,1.5,1,1,0,0,1-.24.71c-.34.39-.48.44-.26.9s-.54,1.46-.86,1.94-.47.85-.92,1c-1.14.34-2.1-.34-3-1s-2-3.52-2-4.38c.28-1.64,1.11-2.89,4.1-3.07C45.61,52.86,47.35,54.06,47.43,55.31Z" transform="translate(-0.51 -3.27)"/><path class="cls-17" d="M44.91,59.38a7.54,7.54,0,0,1-1.13,3c-1.41-.79-4.89.18-4.87-1.54A7.61,7.61,0,0,0,41,56.94C41.13,56.24,45.4,57.4,44.91,59.38Z" transform="translate(-0.51 -3.27)"/><path class="cls-12" d="M46.2,57.47c-.12.17-.52.37-.14,1l-.74,0c0-.21.17-.3,0-.45-.35-.44-1.16.52-1.92,1.26-1.19,1.17-3,0-3.11-.16a3,3,0,0,1-.71-2.68c.33-1.25.31-2.75,1.54-3.55a4.25,4.25,0,0,1,6.47,2C48.34,56.41,46.94,56.48,46.2,57.47Z" transform="translate(-0.51 -3.27)"/><polygon class="cls-28" points="44.15 54.44 47.49 54.37 47.21 54.83 44.07 54.8 43.51 55.73 42.88 55.72 44.15 54.44"/><path class="cls-20" d="M44.26,58.24c-.09.59.06,1.49.32,1.52.69,0,.51-.53.61-1.12s.34-.89.11-1A.72.72,0,0,0,44.26,58.24Z" transform="translate(-0.51 -3.27)"/><path class="cls-16" d="M47.64,54.83a9.31,9.31,0,0,0-3.23-.61c1.43.54,1.23,1.59,1.91,2.13.87.68,3.31,1.31,3.43.82C50,56,48.63,55.17,47.64,54.83Z" transform="translate(-0.51 -3.27)"/><path class="cls-18" d="M40,55.38c1.14,1.31,5.29,1.77,7.89,1.18.9-3.32-1.41-4.38-3.7-4.57C41.63,51.77,39.51,53.32,40,55.38Z" transform="translate(-0.51 -3.27)"/><path class="cls-29" d="M39.87,68.27v-.55l.06-.68L40,65.82l.25.06c0,.41-.07.82-.1,1.23s-.07.81-.1,1.22l-.2-.06Zm0-2.28.05-.2h-.05V66Zm.86,2.55c.14,0,.24-.13.3-.26s-.07-.27-.1-.41c0,.09-.1.16-.15.15s-.19-.25-.19-.61c0-.54.13-.94.27-.91s.08.07.12.22l.16-.3c-.06-.27-.15-.43-.27-.46-.29,0-.53.53-.53,1.43,0,.67.16,1.1.39,1.15Zm.44,0,.61.08c0-.17,0-.34,0-.52l-.37,0c0-.17,0-.34,0-.51l.3,0c0-.18,0-.35,0-.52l-.3,0,0-.44.36,0c0-.17,0-.35,0-.52l-.6,0c0,.41-.06.83-.1,1.24Zm-1.3-2.8V66l-.21,1c-.08.39-.17.78-.25,1.16l-.29-.1c0-.42,0-.84,0-1.26s0-.84,0-1.26l.25.09c0,.39,0,.78,0,1.17v.79h0c0-.25.08-.5.13-.75s.13-.73.2-1.1l.22.07Zm0,1.94,0,.54h0v-.55Zm-1.34-.19V66.45c.1,0,.15-.13.15-.34s-.06-.28-.15-.32v-.48h0c.19.08.34.31.34.79s-.1.71-.23.79c0,.34.09.68.14,1l-.25-.1ZM36.75,67c.23.13.38-.17.38-.63a1.44,1.44,0,0,0-.13-.66l-.09-.19a.86.86,0,0,1-.13-.34c0-.12,0-.2.11-.16s.11.15.16.31L37.2,65a.94.94,0,0,0-.3-.54c-.2-.11-.36.15-.36.6a1.65,1.65,0,0,0,.14.72l.09.18a.91.91,0,0,1,.11.33c0,.14-.05.2-.12.16a.77.77,0,0,1-.2-.42l-.17.25c.1.41.23.61.36.68Zm1.78-1.69v.48h0l-.08,0-.06.65.09,0,.05,0v1.08l-.07-.62-.11,0-.06.83-.24-.1.09-1.2c0-.4.07-.8.1-1.2l.29.12Zm-1.29,1.9.61.29c0-.16,0-.33,0-.49l-.37-.18c0-.16,0-.32,0-.49l.3.14c0-.16,0-.33,0-.49l-.3-.14,0-.42.36.16c0-.16,0-.33,0-.5-.2-.08-.4-.18-.6-.27,0,.4-.06.8-.1,1.19Z" transform="translate(-0.51 -3.27)"/><path class="cls-20" d="M57.6,69.07c.3-.63,0-1.29.3-1.67A7.94,7.94,0,0,1,59.78,66c.24-.17,1.1,1.51,1,1.82a4.78,4.78,0,0,1-1.55,1.42C58.94,69.3,57.93,69.42,57.6,69.07Z" transform="translate(-0.51 -3.27)"/><path class="cls-20" d="M60.68,67.34l1.11-.43c.29-.11.38.22.11.36l-1,.53C60.61,67.93,60.39,67.45,60.68,67.34Z" transform="translate(-0.51 -3.27)"/><path class="cls-20" d="M60.32,67.25h0a.27.27,0,0,1,.12-.36l1.27-.6c.32-.15.5.21.19.38l-1.22.7A.26.26,0,0,1,60.32,67.25Z" transform="translate(-0.51 -3.27)"/><path class="cls-20" d="M60.05,66.81h0a.27.27,0,0,1,.15-.36l1.43-.59c.35-.15.54.24.19.4l-1.39.66A.28.28,0,0,1,60.05,66.81Z" transform="translate(-0.51 -3.27)"/><path class="cls-20" d="M59.85,65.91l1.31-.54c.33-.13.52.26.19.41l-1.27.61C59.75,66.54,59.53,66,59.85,65.91Z" transform="translate(-0.51 -3.27)"/><path class="cls-20" d="M57.88,68.23a1.15,1.15,0,0,1,0-1c.14-.37.36-.77.43-.92.18-.38.23-.31.41-.69.23.09.5.29.11.94,0,.16.1.23-.24.69C59.14,68.26,58.1,68.63,57.88,68.23Z" transform="translate(-0.51 -3.27)"/><path class="cls-16" d="M51.62,75c1.61.12,5.83-3.94,7.05-5.63.1-.88-.59-1.87-1.22-1.4s-5.38,3-7.31,4.28C49,73.39,50.44,74.24,51.62,75Z" transform="translate(-0.51 -3.27)"/><path class="cls-17" d="M56.26,60.2c.36-.73,0-.78.3-1.19s1.78-.28,2.46-.42c.15.19-1,.22.24.58-1.46.79-.19.31.11.63,0,.2-1.25.55-.21.77-.54.14-.38.35-1.16.59a7.51,7.51,0,0,1-1.14.24C56.42,61.5,55.93,60.85,56.26,60.2Z" transform="translate(-0.51 -3.27)"/><path class="cls-18" d="M58.28,60.42l.07,0a.19.19,0,0,0,.12-.22l-1-3.74c-.11-.39-.77-.2-.65.19l1.22,3.67A.19.19,0,0,0,58.28,60.42Z" transform="translate(-0.51 -3.27)"/><path class="cls-4" d="M59.76,65.73l.24-.07-1.59-5.37c0-.11-.28,0-.25.07Z" transform="translate(-0.51 -3.27)"/><path class="cls-19" d="M59.76,65.73l.24-.07-.22-.6c0-.08-.18,0-.16,0Z" transform="translate(-0.51 -3.27)"/><path class="cls-20" d="M56.42,59.16a1.15,1.15,0,0,1,.76-1c.43-.23.57-.35.73-.32.35.06.48,0,1,.12-.17.58-.68.45-.9.44a1.4,1.4,0,0,1-.44.39C57.17,60.37,56.37,59.62,56.42,59.16Z" transform="translate(-0.51 -3.27)"/><path class="cls-20" d="M59,60.38l-.75.17c-.32.08-.22.42.1.4l.75-.1C59.47,60.83,59.29,60.31,59,60.38Z" transform="translate(-0.51 -3.27)"/><path class="cls-20" d="M59.48,60h0a.29.29,0,0,0-.34-.24l-1,.21c-.38.08-.31.49.08.45l1-.09A.28.28,0,0,0,59.48,60Z" transform="translate(-0.51 -3.27)"/><path class="cls-20" d="M59.53,59.34h0a.31.31,0,0,0-.37-.23l-1.1.32c-.41.12-.34.57.08.48l1.12-.23A.31.31,0,0,0,59.53,59.34Z" transform="translate(-0.51 -3.27)"/><path class="cls-20" d="M59.68,58.68h0a.29.29,0,0,0-.36-.2l-1,.32c-.37.12-.25.52.13.44l1-.2A.28.28,0,0,0,59.68,58.68Z" transform="translate(-0.51 -3.27)"/><polygon class="cls-31" points="68.61 58.64 68.69 54.49 57.19 48.03 57.88 52.62 68.61 58.64"/><polygon class="cls-30" points="73.49 51.81 68.69 54.49 68.61 58.64 72.76 56.35 73.49 51.81"/><polygon class="cls-32" points="73.03 49.48 68.69 51.88 57.6 45.66 61.92 43.25 73.03 49.48"/><polygon class="cls-34" points="68.69 54.49 73.49 51.81 73.03 49.48 68.69 51.88 68.69 54.49"/><polygon class="cls-33" points="68.69 54.49 57.2 48.03 57.6 45.65 68.69 51.88 68.69 54.49"/><polygon class="cls-30" points="69.12 49.24 68.62 48.65 68.62 47.6 63.1 44.96 63.1 46.4 62.7 46.63 62.4 44.08 69.12 47.67 69.12 49.24"/><polygon class="cls-35" points="69.12 47.68 68.58 47.97 61.93 44.24 62.45 43.94 69.12 47.68"/><polygon class="cls-30" points="69.08 50.19 69.62 49.9 69.12 47.68 68.58 47.97 69.08 50.19"/><polygon class="cls-31" points="69.08 50.19 67.8 49.49 67.81 48.05 62.7 45.19 62.7 46.63 61.55 46.01 61.93 44.23 68.58 47.97 69.08 50.19"/><polygon class="cls-79" points="67.16 53.16 66.65 53.44 65.34 52.71 65.83 52.42 67.16 53.16"/><polygon class="cls-34" points="66.91 55.45 67.16 55.31 67.16 53.16 66.65 53.44 66.91 55.45"/><polygon class="cls-33" points="66.91 55.45 65.6 54.71 65.34 52.7 66.65 53.44 66.91 55.45"/><polygon class="cls-79" points="60.18 49.21 59.67 49.5 58.37 48.77 58.85 48.48 60.18 49.21"/><polygon class="cls-34" points="59.93 51.51 60.18 51.37 60.18 49.22 59.67 49.5 59.93 51.51"/><polygon class="cls-33" points="59.93 51.51 58.62 50.77 58.36 48.76 59.67 49.5 59.93 51.51"/></svg>