<svg height="772pt" viewBox="-36 -24 772 772.49997" width="772pt" xmlns="http://www.w3.org/2000/svg"><path d="m559.730469-1.582031c-8.398438.003906-16.234375 4.234375-20.847657 11.242187-4.613281 7.019532-5.394531 15.882813-2.078124 23.59375l-87.40625 87.40625 17.65625 17.65625 90.171874-90.199218c.832032.125 1.664063.207031 2.503907.246093 13.789062 0 24.972656-11.179687 24.972656-24.972656s-11.183594-24.972656-24.972656-24.972656zm0 0"/><path d="m160.160156 23.390625c0-13.792969-11.183594-24.972656-24.972656-24.972656-13.792969 0-24.972656 11.179687-24.972656 24.972656s11.179687 24.972656 24.972656 24.972656c.835938-.039062 1.667969-.121093 2.496094-.246093l90.253906 90.246093 17.652344-17.65625-87.40625-87.40625c1.332031-3.128906 2.007812-6.5 1.976562-9.910156zm0 0"/><path d="m-2.164062 672.691406h124.863281v-474.488281h-112.375c-6.898438 0-12.488281 5.589844-12.488281 12.484375zm49.945312-24.972656h-24.972656v-24.972656h24.972656zm0-49.945312h-24.972656v-24.976563h24.972656zm49.945312 49.945312h-24.972656v-24.972656h24.972656zm0-49.945312h-24.972656v-24.976563h24.972656zm-37.457031-349.625c27.582031 0 49.945313 22.363281 49.945313 49.945312s-22.363282 49.949219-49.945313 49.949219-49.945312-22.367188-49.945312-49.949219 22.363281-49.945312 49.945312-49.945312zm-49.945312 137.351562c0-6.894531 5.585937-12.484375 12.484375-12.484375h74.917968c6.894532 0 12.488282 5.589844 12.488282 12.484375v49.945312c0 6.898438-5.59375 12.488282-12.488282 12.488282h-74.917968c-6.898438 0-12.484375-5.589844-12.484375-12.488282zm0 99.894531c0-6.898437 5.585937-12.488281 12.484375-12.488281h74.917968c6.894532 0 12.488282 5.589844 12.488282 12.488281v49.945313c0 6.894531-5.59375 12.484375-12.488282 12.484375h-74.917968c-6.898438 0-12.484375-5.589844-12.484375-12.484375zm0 0"/><path d="m35.296875 497.878906h49.945313v24.972656h-49.945313zm0 0"/><path d="m347.457031 110.796875c-48.285156-.121094-93.640625 23.144531-121.71875 62.433594h243.488281c-28.085937-39.304688-73.464843-62.574219-121.769531-62.433594zm0 0"/><path d="m10.324219 722.636719h674.269531c6.894531 0 12.488281-5.589844 12.488281-12.484375v-12.488282h-699.246093v12.488282c0 6.894531 5.589843 12.484375 12.488281 12.484375zm0 0"/><path d="m35.296875 397.988281h49.945313v24.972657h-49.945313zm0 0"/><path d="m85.242188 298.09375c0 13.796875-11.183594 24.972656-24.972657 24.972656-13.792969 0-24.972656-11.175781-24.972656-24.972656 0-13.792969 11.179687-24.972656 24.972656-24.972656 13.789063 0 24.972657 11.179687 24.972657 24.972656zm0 0"/><path d="m147.675781 672.691406h549.40625v-462.003906c0-6.894531-5.59375-12.484375-12.488281-12.484375h-536.917969zm24.972657-437.027344c0-6.898437 5.589843-12.488281 12.484374-12.488281h474.488282c6.894531 0 12.488281 5.589844 12.488281 12.488281v399.566407c0 6.898437-5.59375 12.488281-12.488281 12.488281h-474.488282c-6.894531 0-12.484374-5.589844-12.484374-12.488281zm0 0"/><path d="m647.136719 248.148438h-449.515625v374.597656h449.515625zm-383.425781 190.957031 124.867187-124.867188 17.65625 17.660157-124.867187 124.863281zm92.574218 17.65625-17.65625-17.65625 124.867188-124.867188 17.65625 17.660157zm165.984375 141.011719h-24.972656v-24.976563h24.972656zm99.894531 0h-74.921874v-24.976563h74.921874zm0 0"/></svg>