<svg height="448pt" viewBox="-80 0 448 448" width="448pt" xmlns="http://www.w3.org/2000/svg"><path d="m40 440h24v8h-24zm0 0"/><path d="m16 160h256v8h-256zm0 0"/><path d="m288 184h-288v216c0 13.253906 10.746094 24 24 24h240c13.253906 0 24-10.746094 24-24zm-256 80c0 4.417969-3.582031 8-8 8s-8-3.582031-8-8v-56c0-4.417969 3.582031-8 8-8s8 3.582031 8 8zm0 0"/><path d="m224 440h24v8h-24zm0 0"/><path d="m0 144h288v-120c0-13.253906-10.746094-24-24-24h-240c-13.253906 0-24 10.746094-24 24zm16-80c0-4.417969 3.582031-8 8-8s8 3.582031 8 8v56c0 4.417969-3.582031 8-8 8s-8-3.582031-8-8zm0 0"/></svg>